# xmcd
#
# Track frame offsets: 
#        150
#        25093
#        51728
#        86593
#        121514
#        170300
#        202070
#        233203
#        251960
#        276772
#        342932
#
# Disc length: 4773 seconds
#
# Revision: 0
# Processed by: cddbd v1.5.2PL0 Copyright (c) Steve Scherf et al.
# Submitted via: ExactAudioCopy v1.0b3
#
DISCID=9c12a30b
DTITLE=Various Artist - Svenska Skratt [CD 2)
DYEAR=2011
DGENRE=Comedy
TTITLE0=Martin Ljung - Fingal Olsson
TTITLE1=Martin Ljung - Kanonkungen Folke Lavetti
TTITLE2=Martin Ljung - Skojten
TTITLE3=Martin Ljung - Viking
TTITLE4=Stig Grybe and Sven Lykke - Atom Ante
TTITLE5=Stig Grybe - Fågelskådaren
TTITLE6=Stig Grybe - Seglaren
TTITLE7=Brita Borg and Povel Ramel - Vindflöjeln
TTITLE8=Martin Ljung - Kromosomtalaren
TTITLE9=Martin Ljung - Rock-Fnykis
TTITLE10=Povel Ramel, Martin Ljung, Tosse Bark, Oscar Rundqvist - Var 
TTITLE10=Är Tvålen
EXTD=
EXTT0=
EXTT1=
EXTT2=
EXTT3=
EXTT4=
EXTT5=
EXTT6=
EXTT7=
EXTT8=
EXTT9=
EXTT10=
PLAYORDER=
